<svg
  width="40"
  height="40"
  viewBox="0 0 110 110"
  preserveAspectRatio="xMidYMid meet"
  xmlns="http://www.w3.org/2000/svg"
>
	<rect x="0" y="0" width="100%" height="100%" fill="transparent" />
	<circle cx="50%" cy="50%" r="50" fill="transparent" stroke="#2B2B2B" filter="url(#drop_shadow)" />
	<g style="isolation: isolate">
		<g style="mix-blend-mode: multiply" filter="url(#filter0_f_0_1)">
			<circle cx="50%" cy="50%" r="49" fill="#FC6F0911" stroke="#2B2B2B" />
		</g>
		<g>
			<g style="mix-blend-mode: multiply" filter="url(#filter1_f_0_1)">
				<circle cx="40%" cy="55%" r="29" fill="#FC090999" />
			</g>
			<g style="mix-blend-mode: multiply" filter="url(#filter2_f_0_1)">
				<circle cx="40%" cy="55%" r="9" fill="#FC0909" />
			</g>
		</g>
	</g>
	<g
    transform="translate(-10,-10)
                  rotate(-4)
                  scale(1.07)"
    mask="url(#my_mask)"
  >
		<mask id="my_mask">
			<rect x="0" y="0" width="100%" height="100%" fill="#FFFFFF" />
			<circle
        transform="translate(10,10)
                    rotate(4)
                    scale(0.92)"
        cx="50%"
        cy="50%"
        r="50"
        fill="transparent"
        stroke="#000000"
        clip-path="url(#cut-off)"
      />
			<path
        d="M78.4877 53.8432C84.2991 65.4992 87.3591 77.122 87.6261 86.478C87.8945 95.8801 85.3478 102.792 80.2015 105.358C75.0553 107.924 68.0022 105.798 60.6549 99.9254C53.3435 94.0815 45.9026 84.643 40.0912 72.987C34.2798 61.3311 31.2198 49.7083 30.9528 40.3522C30.6844 30.9502 33.2311 24.0377 38.3773 21.4719C43.5236 18.9061 50.5767 21.0322 57.924 26.9049C65.2354 32.7487 72.6762 42.1873 78.4877 53.8432Z"
        fill="#000000"
      />
		</mask>
		<path
      d="M86.5343 48.2977C92.6731 60.6102 95.344 73.1689 94.7219 83.5068C94.0988 93.8602 90.1882 101.878 83.2869 105.319C76.3855 108.76 67.6289 107.058 58.9854 101.324C50.3547 95.5997 41.9323 85.9086 35.7935 73.5962C29.6548 61.2837 26.9839 48.725 27.606 38.3871C28.229 28.0337 32.1396 20.016 39.041 16.5752C45.9423 13.1343 54.6989 14.8363 63.3425 20.5695C71.9731 26.2942 80.3956 35.9853 86.5343 48.2977Z"
      fill="#FC6F09"
      stroke="#000000"
    />
		<path
      d="M82.1927 50.7573C88.2069 62.82 91.0853 74.9926 90.8974 84.9082C90.709 94.851 87.4506 102.377 81.3689 105.41C75.2872 108.442 67.3154 106.515 59.2614 100.681C51.2293 94.864 43.24 85.2396 37.2258 73.177C31.2116 61.1143 28.3333 48.9417 28.5211 39.026C28.7095 29.0833 31.9679 21.5569 38.0496 18.5247C44.1313 15.4924 52.1032 17.4197 60.1572 23.2529C68.1892 29.0702 76.1785 38.6946 82.1927 50.7573Z"
      fill="#FC6F09"
      stroke="#000000"
    />
		<path
      d="M78.4877 53.8432C84.2991 65.4992 87.3591 77.122 87.6261 86.478C87.8945 95.8801 85.3478 102.792 80.2015 105.358C75.0553 107.924 68.0022 105.798 60.6549 99.9254C53.3435 94.0815 45.9026 84.643 40.0912 72.987C34.2798 61.3311 31.2198 49.7083 30.9528 40.3522C30.6844 30.9502 33.2311 24.0377 38.3773 21.4719C43.5236 18.9061 50.5767 21.0322 57.924 26.9049C65.2354 32.7487 72.6762 42.1873 78.4877 53.8432Z"
      fill="#FC6F09"
      stroke="#000000"
    />
	</g>
	<defs>
		<filter id="drop_shadow">
			<feDropShadow dx="0" dy="0" stdDeviation="1" flood-color="#FFFFFF" />
		</filter>
		<filter
      id="filter0_f_0_1"
      x="5"
      y="5"
      width="100"
      height="100"
      filterUnits="userSpaceOnUse"
      color-interpolation-filters="sRGB"
    >
			<feFlood flood-opacity="0" result="BackgroundImageFix" />
			<feBlend mode="normal" in="SourceGraphic" in2="BackgroundImageFix" result="shape" />
			<feGaussianBlur stdDeviation="1" result="effect1_foregroundBlur_0_1" />
		</filter>
		<filter
      id="filter1_f_0_1"
      x="5"
      y="5"
      width="100"
      height="100"
      filterUnits="userSpaceOnUse"
      color-interpolation-filters="sRGB"
    >
			<feFlood flood-opacity="0" result="BackgroundImageFix" />
			<feBlend mode="normal" in="SourceGraphic" in2="BackgroundImageFix" result="shape" />
			<feGaussianBlur stdDeviation="7" result="effect1_foregroundBlur_0_1" />
		</filter>
		<filter
      id="filter2_f_0_1"
      x="0"
      y="0"
      width="100"
      height="100"
      filterUnits="userSpaceOnUse"
      color-interpolation-filters="sRGB"
    >
			<feFlood flood-opacity="0" result="BackgroundImageFix" />
			<feBlend mode="normal" in="SourceGraphic" in2="BackgroundImageFix" result="shape" />
			<feGaussianBlur stdDeviation="13" result="effect1_foregroundBlur_0_1" />
		</filter>
		<clipPath id="cut-off">
			<rect x="5" y="8" width="28%" height="25%" fill="black" />
		</clipPath>
	</defs>
</svg>
